<svg width="115" height="36" viewBox="0 0 115 36" fill="none" xmlns="http://www.w3.org/2000/svg">
<path d="M5.592 22.832H10.968V26H1.488V9.152H5.592V22.832ZM18.5415 26.192C17.2295 26.192 16.0455 25.912 14.9895 25.352C13.9495 24.792 13.1255 23.992 12.5175 22.952C11.9255 21.912 11.6295 20.696 11.6295 19.304C11.6295 17.928 11.9335 16.72 12.5415 15.68C13.1495 14.624 13.9815 13.816 15.0375 13.256C16.0935 12.696 17.2775 12.416 18.5895 12.416C19.9015 12.416 21.0855 12.696 22.1415 13.256C23.1975 13.816 24.0295 14.624 24.6375 15.68C25.2455 16.72 25.5495 17.928 25.5495 19.304C25.5495 20.68 25.2375 21.896 24.6135 22.952C24.0055 23.992 23.1655 24.792 22.0935 25.352C21.0375 25.912 19.8535 26.192 18.5415 26.192ZM18.5415 22.64C19.3255 22.64 19.9895 22.352 20.5335 21.776C21.0935 21.2 21.3735 20.376 21.3735 19.304C21.3735 18.232 21.1015 17.408 20.5575 16.832C20.0295 16.256 19.3735 15.968 18.5895 15.968C17.7895 15.968 17.1255 16.256 16.5975 16.832C16.0695 17.392 15.8055 18.216 15.8055 19.304C15.8055 20.376 16.0615 21.2 16.5735 21.776C17.1015 22.352 17.7575 22.64 18.5415 22.64ZM33.3428 26.192C32.0308 26.192 30.8468 25.912 29.7908 25.352C28.7508 24.792 27.9268 23.992 27.3188 22.952C26.7268 21.912 26.4308 20.696 26.4308 19.304C26.4308 17.928 26.7348 16.72 27.3428 15.68C27.9508 14.624 28.7828 13.816 29.8388 13.256C30.8948 12.696 32.0788 12.416 33.3908 12.416C34.7028 12.416 35.8868 12.696 36.9428 13.256C37.9988 13.816 38.8308 14.624 39.4388 15.68C40.0468 16.72 40.3508 17.928 40.3508 19.304C40.3508 20.68 40.0388 21.896 39.4148 22.952C38.8068 23.992 37.9668 24.792 36.8948 25.352C35.8388 25.912 34.6548 26.192 33.3428 26.192ZM33.3428 22.64C34.1268 22.64 34.7908 22.352 35.3348 21.776C35.8948 21.2 36.1748 20.376 36.1748 19.304C36.1748 18.232 35.9028 17.408 35.3588 16.832C34.8308 16.256 34.1748 15.968 33.3908 15.968C32.5908 15.968 31.9268 16.256 31.3988 16.832C30.8708 17.392 30.6068 18.216 30.6068 19.304C30.6068 20.376 30.8628 21.2 31.3748 21.776C31.9028 22.352 32.5588 22.64 33.3428 22.64ZM50.232 26L46.152 20.384V26H42.048V8.24H46.152V18.056L50.208 12.608H55.272L49.704 19.328L55.32 26H50.232ZM66.6039 17.36C67.5799 17.568 68.3639 18.056 68.9559 18.824C69.5479 19.576 69.8439 20.44 69.8439 21.416C69.8439 22.824 69.3479 23.944 68.3559 24.776C67.3799 25.592 66.0119 26 64.2519 26H56.4039V9.152H63.9879C65.6999 9.152 67.0359 9.544 67.9959 10.328C68.9719 11.112 69.4599 12.176 69.4599 13.52C69.4599 14.512 69.1959 15.336 68.6679 15.992C68.1559 16.648 67.4679 17.104 66.6039 17.36ZM60.5079 15.968H63.1959C63.8679 15.968 64.3799 15.824 64.7319 15.536C65.0999 15.232 65.2839 14.792 65.2839 14.216C65.2839 13.64 65.0999 13.2 64.7319 12.896C64.3799 12.592 63.8679 12.44 63.1959 12.44H60.5079V15.968ZM63.5319 22.688C64.2199 22.688 64.7479 22.536 65.1159 22.232C65.4999 21.912 65.6919 21.456 65.6919 20.864C65.6919 20.272 65.4919 19.808 65.0919 19.472C64.7079 19.136 64.1719 18.968 63.4839 18.968H60.5079V22.688H63.5319ZM92.6415 26.192C91.3295 26.192 90.1455 25.912 89.0895 25.352C88.0495 24.792 87.2255 23.992 86.6175 22.952C86.0255 21.912 85.7295 20.696 85.7295 19.304C85.7295 17.928 86.0335 16.72 86.6415 15.68C87.2495 14.624 88.0815 13.816 89.1375 13.256C90.1935 12.696 91.3775 12.416 92.6895 12.416C94.0015 12.416 95.1855 12.696 96.2415 13.256C97.2975 13.816 98.1295 14.624 98.7375 15.68C99.3455 16.72 99.6495 17.928 99.6495 19.304C99.6495 20.68 99.3375 21.896 98.7135 22.952C98.1055 23.992 97.2655 24.792 96.1935 25.352C95.1375 25.912 93.9535 26.192 92.6415 26.192ZM92.6415 22.64C93.4255 22.64 94.0895 22.352 94.6335 21.776C95.1935 21.2 95.4735 20.376 95.4735 19.304C95.4735 18.232 95.2015 17.408 94.6575 16.832C94.1295 16.256 93.4735 15.968 92.6895 15.968C91.8895 15.968 91.2255 16.256 90.6975 16.832C90.1695 17.392 89.9055 18.216 89.9055 19.304C89.9055 20.376 90.1615 21.2 90.6735 21.776C91.2015 22.352 91.8575 22.64 92.6415 22.64ZM109.531 26L105.451 20.384V26H101.347V8.24H105.451V18.056L109.507 12.608H114.571L109.003 19.328L114.619 26H109.531Z" fill="white"/>
<path d="M77.8402 26.192C76.5282 26.192 75.3442 25.912 74.2882 25.352C73.2482 24.792 72.4242 23.992 71.8162 22.952C71.2242 21.912 70.9282 20.696 70.9282 19.304C70.9282 17.928 71.2322 16.72 71.8402 15.68C72.4482 14.624 73.2802 13.816 74.3362 13.256C75.3922 12.696 76.5762 12.416 77.8882 12.416C79.2002 12.416 80.3842 12.696 81.4402 13.256C82.4962 13.816 83.3282 14.624 83.9362 15.68C84.5442 16.72 84.8482 17.928 84.8482 19.304C84.8482 20.68 84.5362 21.896 83.9122 22.952C83.3042 23.992 82.4642 24.792 81.3922 25.352C80.3362 25.912 79.1522 26.192 77.8402 26.192ZM77.8402 22.64C78.6242 22.64 79.2882 22.352 79.8322 21.776C80.3922 21.2 80.6722 20.376 80.6722 19.304C80.6722 18.232 80.4002 17.408 79.8562 16.832C79.3282 16.256 78.6722 15.968 77.8882 15.968C77.0882 15.968 76.4242 16.256 75.8962 16.832C75.3682 17.392 75.1042 18.216 75.1042 19.304C75.1042 20.376 75.3602 21.2 75.8722 21.776C76.4002 22.352 77.0562 22.64 77.8402 22.64Z" fill="black"/>
<line x1="81.7321" y1="26.7321" x2="84.732" y2="31.9282" stroke="black" stroke-width="4" stroke-linecap="round"/>
</svg>
